<svg id="Layer_1" data-name="Layer 1" xmlns="http://www.w3.org/2000/svg" viewBox="0 0 1280 174.1"><defs><style>.cls-3{fill:#34c4e6}</style></defs><path d="M19.25 108c0-7 0-28.45-.19-34.48l.19-23.17c0-3-.56-34.1-1.32-36.18-.56-1.5-.75-1.5-13.19-2.63-2.63-.16-4.33-.35-4.33-2.05a4.7 4.7 0 0 1 .38-1.88 2.51 2.51 0 0 1 1.51-.38c1.31 0 12.05.57 14.31.57 7.54 0 19.6.19 27.13 0 3.77 0 20.54-.38 23.93-.38 2.26 0 3 0 10.55.38h13c2.45 0 9.42 0 10.17.38 1 1.13.76 1.88 0 7.34 0 .19-.19 10 .57 17.71-.19.38-.19.57-.57.57a5.73 5.73 0 0 1-1.88-.19c-1.13-2.07-5.28-11.68-6.22-13.61-4.14-7.91-5.27-8.1-10.55-8.1H53.92c-2.08 0-15.45.38-16 .57-3.58.56-3.58 8.29-3.58 13.94l.38 22V61.3c.94.19 13.38.57 14.88.57 2.64 0 27.89-.57 29.77-.75 2.45-.57 4.33-.95 4.9-5.66 1.49-10.55 1.67-11.68 3.73-12.62a3.42 3.42 0 0 1 2.07.56c.38 1.14.38 1.51 0 4.53-.38 2.26-.38 17.14-.38 20.34 0 2.64.94 15.64.94 17a11.66 11.66 0 0 1-.18 2.07 2.47 2.47 0 0 1-1.89.57c-1.3-2.49-4.31-13.61-5.25-15.91-2.08-4.1-4.31-6.18-11.12-6.18-2.45 0-12.62.38-14.88.38-5.84 0-18.84 0-22.61.38-.19 2.82-.19 4.52 0 20l-.19 10.74.19 10.36c0 11.12.75 12.81 7.91 12.81 5.28 0 27.89.38 32.41.19 22.23-.38 25.43-5.09 32.21-19.22 3.58-7.16 4-8.1 5.65-8.1a3.52 3.52 0 0 1 1.89.75c-1.7 5.85-4 13.38-4.15 20.54-.18 7-.18 7.72-1.69 9.8-3.77-.19-18.46 0-27.88.19l-11.5-.19c-5.08 0-41.63.56-44.46.56-6.22.38-16.58.76-22.79.76-1.89 0-2.45-.76-2.27-2.83 2.08-1.88 15.64-2.26 17.9-3.39.76-.94 1.32-1.89 1.32-5.09zm173.51-10l-.19 10.36c-.19 8.1 0 8.86 3 10.74 1.88.19 9 1.51 10.17 2.83a7.53 7.53 0 0 1-.57 3.2c-5.84-.19-11.68-.38-17.71-.38-3.95 0-14.69.38-20.34.38l-.57-2.07a2.89 2.89 0 0 1 .75-1.51 13 13 0 0 1 5.47-1.32c5.09-.37 5.27-.37 7.53-2.26a7.26 7.26 0 0 0 1.14-3.58c0-3.39-.57-20-.57-23.36v-4.67c0-15.26 0-17-2.45-21.1-2.64-4.33-9.23-7.16-14.88-7.16-12.44 0-19.6 7-23.55 10.93.37 25.24-.38 48 1.5 49.17 1.89.75 9.8 2.83 10.74 3 2.83.57 3.77 2.08 3.21 4-4.71 0-14.89-.38-18.66-.38-4.14 0-18.27.38-21.85.38a4.24 4.24 0 0 1 .19-3c1.51-.57 8.85-1.89 10.17-2.26 3.2-1.13 3.39-1.13 3.39-14 0-5.46 0-28.82-.37-32-.57-4.9-7.16-6.41-10.37-6.79v-3.4c5.09-1.32 12.63-3.39 19-15.82h3.21c.18 2.07.18 11.87.37 13.94 8.86-6.22 18.84-12.81 30.52-12.81 11.12 0 17.9 6.59 20.16 13.37 1.7 5.09 1.51 13.76 1.51 21.67zm86.47-48.19c0 6.41.56 38.62.56 39.94 0 4.15-.56 22.61-.18 26.38.18 3.39 1.5 3.58 12.43 4.33v3c-8.1 1.69-18.84 4-24.12 4.33V119c-1.69.57-9.42 3.77-11.11 4.34-4.15 1.32-12.81 3.58-20 3.58-15.45 0-30.52-14.89-30.52-35.23 0-28.27 22.61-39.38 36.74-39.38 11.3 0 15.82 1.88 24.3 5.46V23.81c0-11.68-.75-11.87-14.7-16a14.22 14.22 0 0 1 .19-3C265.1 3.65 270.37 2 274.52.45H279c.38 3.77.38 6.22.38 13.94zm-31.65 69.9c6 0 16-1.89 19.78-5.28.19-3.58.38-6.22.38-25.43 0-15.64 0-20.91-5.09-25.63a26 26 0 0 0-17.71-6.78c-10.55 0-25.25 7.73-25.25 32.41 0 18.84 11.5 30.71 27.89 30.71zm75.17-43.33c-10.37.18-11.5 0-15.64.37a13.31 13.31 0 0 0-.94 3.77c0 6.41 0 8.85 1.32 13.56 2.44 8.48 9 23.37 28.82 23.37 10 0 16.2-5.09 23.93-11.5.56 3.4.56 3.58.37 5.09-6.4 7.91-18.84 15.83-30.89 15.83h-2.64c-12.81 0-33.16-9.05-33.16-37.31 0-10.92 7-40.5 37.12-40.5 20.34 0 28.82 16.2 28.63 26.94zm20.53-5.28a4 4 0 0 0 3.39-3.58c0-1.13-.75-14.13-16.2-14.13-16.58 0-22.23 14.88-22.23 19.22 7.91.19 10.76 0 35.04-1.51zm74.41 21.67v20.34a6.19 6.19 0 0 0 5.84 4.52 7.52 7.52 0 0 0 5.09-2.26c1.7-2.63 1.88-2.82 4-3.2a3.68 3.68 0 0 1 .56 1.7s-3.95 13-14.69 13c-10.93 0-11.87-7.16-12.63-12.63-15.07 10.55-17.71 12.63-29.76 12.63-9.42 0-10-8.86-10-10.37 0-10.36 13.75-21.66 20.91-25.81 3-1.69 16.77-7.34 19.41-8.85 1.13-15.45-.57-26.94-12.44-26.94a16.24 16.24 0 0 0-15.44 10.92 47.69 47.69 0 0 0-1.89 7.35 10.9 10.9 0 0 1-1.88 3.58c-1.7 1.13-4 2.64-6.22 2.64-.94 0-4.71-.75-4.71-2.64 0-3.2 11.3-27.69 31.65-27.69 7.54 0 12.44.19 17.9 5.84 4.71 4.9 5.27 6.78 4.71 24.68zm-30.14 26.94c3.77 0 10.36-3 18.09-10.36 0-.38.75-16.4.18-23.18-11.3 4.15-26.75 14.89-26.75 25.25a8.06 8.06 0 0 0 8.48 8.29zm82.33 8.48h-2.83c-1.69-4.34-10.55-22.8-12.24-26.57-3-6.59-15.08-35.8-17.9-41.63-1.13-2.45-2.64-2.64-13.19-5.66-.56-1.69-.56-1.88-.38-2.82.76 0 4.15.19 7.92.37s7.91.38 10 .38c2.64 0 7.16-.19 10-.19 2.07 0 14.69 0 14.69 1.32a4.86 4.86 0 0 1-.37 1.88c-2.45.57-12.82 2.08-14.89 2.64a1.27 1.27 0 0 0-.75.94c0 1.51 17.71 43.34 22.42 52.76 7.91-15.26 19-45.41 19-50.12 0-3.77-5.28-4.71-13.95-6-.56 0-1.13-1.5-.94-3.2 6.41-.19 23.18-.38 27.7-.38 2.26 0 6.4.19 8.66.19 1.32 0 1.51.94 1.51 1.7a2.28 2.28 0 0 1-.56 1.5L511 56c-10.74 1.32-11.87 1.51-13.94 6.4-3.77 9.05-9.05 23.93-13 33zm80.63-79.13c26.56 0 40.32 21.29 40.32 40.13 0 15.26-13.19 37.68-42.77 37.68-22.8 0-39.94-17.52-39.94-39.38 0-7.35 4.88-38.43 42.39-38.43zm26 39c0-8.86-3.77-35.42-26.75-35.42-27.32 0-27.32 30.14-27.32 36.73 0 25.44 13.56 33.92 26.37 33.92 16.39 0 27.7-13.57 27.7-35.23zm45.02 25.81c0 3.76.57 4.14 2.45 5.46 17.33 1.32 20.16 1.7 20.16 3.77 0 .38-.19.75-.76 1.51l-14.13-.19-5.46.19-9.61-.19c-3.2 0-16.76.56-20.34.75a3.48 3.48 0 0 1-.38-1.32 4.37 4.37 0 0 1 .75-1.88c2.08-.57 11.68-2.07 12.81-2.45 2.08-.57 2.08-1.51 2.08-8.48 0-6.22 0-37.68-1.32-41.07-.76-1.7-2.45-2.45-4.34-2.64-5.46-.94-6-.94-7.91-1.69l.38-2.64c9.61-4 15.45-6.41 20.72-17.71h3.2c.38 3.2.38 4.71.38 17.71l.19 2.64V69h.38c4.52-8.67 14.69-20 22.6-20 6.79 0 9.24 5.84 9.24 9.42 0 6-5.66 7.16-7.54 7.16s-10-3-11.68-3c-3.39 0-5.65 2.26-7.54 5.28-2.07 3.2-5.08 8.1-5.08 12.43 0 3.58.56 19.78.56 23.17zm181.23-6.22c0 10.55 1.13 10.74 8.86 12.06 6.21 1.5 8.29 2.07 8.85 3a3.62 3.62 0 0 1 .19 2.83l-3-.19a118.36 118.36 0 0 0-19.61-1.35 223.69 223.69 0 0 0-27.5 1.7 10.19 10.19 0 0 1 0-3.4c2.82-1.5 6.59-2.07 10.36-2.44s7.53-3 7.53-7.54V82c0-1.7 0-12.81-.37-13.76-.57-1.5-25.44-.18-28.83 0-4 .19-21.48-.37-25.24-.37-13.76 0-13.76.19-13.76 4.14 0 4.52-.37 24.87-.37 28.45 0 4.9 0 17.9 2.45 19.59.94.57 11.68 2.83 13.75 3.58a1.7 1.7 0 0 1 .56 1c0 .94-1.5 1.13-2.07 1.13-1.88 0-7.35-.19-12.81-.57-5.28-.19-10.55-.38-12.43-.38s-7.16.19-12.06.19c-5.09.19-9.23.38-11.12.38l.19-2.07c2.83-1.51 3.58-1.51 10.93-2.64 7.53-1.13 8.29-4.9 8.29-16.77l.56-80.44c0-8.3.19-9.24-.75-10.37C704 11.38 693.87 11 692 10.62c-.37-.75-.56-1.13-.37-3.39h15.07c9 0 21.29-.94 31.84-1.32.56 3.77-1.51 4-3.39 4-14 .57-14.7 2.83-14.7 12.62 0 11.31 0 29.21.94 39.57.76.37 13.57.94 15.45.94 4.52 0 47.48 0 51.06-.94.56-14.51.56-25.44.56-31.09 0-3.39 0-17-1.32-18.46-1.31-1.7-11.11-2.07-13-2.64a7.29 7.29 0 0 1-.56-3 28.19 28.19 0 0 1 4-.57c1.31 0 6.21.19 11.11.38 5.09.37 10.17.56 11.87.56 4.9 0 6 0 17.9-.94a9.27 9.27 0 0 1-.46 3.34c-2.07.76-5.84 1.32-10.74 1.89-2.63.37-4.52 1.13-4.52 6zm63.86-58.59c26.57 0 40.32 21.29 40.32 40.13 0 15.26-13.19 37.68-42.77 37.68-22.79 0-39.94-17.52-39.94-39.38 0-7.35 4.9-38.43 42.39-38.43zm26 39c0-8.86-3.77-35.42-26.75-35.42-27.32 0-27.32 30.14-27.32 36.73 0 25.44 13.56 33.92 26.38 33.92 16.39 0 27.69-13.57 27.69-35.23zm90.8 13.75c0 2.07.19 10.74.38 12.62.94 1.89 1.13 2.07 5.84 2.07 2.64 0 3 .19 7.73.57v2.83c-3.77.75-12.06 2.82-16.58 4.14l-8.48 2.64a32.83 32.83 0 0 1-.57-4v-10c-16 10.92-20.53 14.13-28.63 14.13-4.71 0-15.83-1.7-20.35-16.21-1.51-4.89-1.51-10.17-1.51-15.44 0-1.51.38-8.11.38-9.42L921.44 63c0-3.77 0-4.15-1.32-5.28-1.69-.37-9.8-2.07-10.93-2.63l.19-2.83c2.64 0 23.18 0 23.93.19.38 5.46-.38 30.71-.38 35.79 0 21.48 1.13 24.31 6.78 27.13a20.12 20.12 0 0 0 8.48 2.08c8.86 0 18.09-4.9 23.36-9.8.19-2.07 1-28.83 1-31.27 0-17.15-.57-17.9-5.66-19.22-1.88-.38-10.17-1.51-11.87-1.89 0-.18-.75-1.13-.75-1.88a2 2 0 0 1 .38-.94c1.51-.19 27.5-.38 29.58-.19 0 6.59-.76 36.17-.76 42zm16.95 1.32c0-1.32.19-2.07 2.83-1.89 3.39 8.67 8.85 22.42 24.11 22.42 4.34 0 14.13-4.33 14.13-12.43 0-12.81-12.81-17.71-23.92-21.86-12.25-4.52-17.33-11.68-17.33-20 0-17.14 18.08-20.72 23.92-20.72 6.59 0 14.89.94 20.73 4.15.37 2.07.94 12.24 1.31 16.57a18.08 18.08 0 0 1-3.39.19c-2.82-7.91-10.36-16.58-19.4-16.58-7 0-12.44 4.34-12.44 12.25 0 8.29 6 10.55 19.22 15.83 5.65 2.26 20.35 8.66 20.35 24.49 0 12-11.68 22-25.81 22-7.92 0-22.05-2.83-22.61-6zm87.79-26.75c-10.36.18-11.49 0-15.63.37a13.41 13.41 0 0 0-1 3.77c0 6.41 0 8.85 1.32 13.56 2.45 8.48 9 23.37 28.83 23.37 10 0 16.2-5.09 23.92-11.5.57 3.4.57 3.58.38 5.09-6.4 7.91-18.84 15.83-30.9 15.83h-2.63c-12.81 0-33.16-9.05-33.16-37.31 0-10.92 7-40.5 37.11-40.5 20.35 0 28.83 16.2 28.64 26.94zm20.54-5.28a4 4 0 0 0 3.39-3.58c0-1.13-.75-14.13-16.2-14.13-16.58 0-22.23 14.88-22.23 19.22 7.91.19 10.74 0 35.04-1.51z" transform="translate(0 -.45)" fill="#666"/><path d="M1060.05 174l-16.38-22.42V174h-5.51v-31.43h5.65l16.06 21.81v-21.81h5.51V174zm12.49-15.7c0-9.37 6.64-16.24 16.06-16.24s16.05 6.87 16.05 16.24-6.64 16.25-16.05 16.25-16.06-6.87-16.06-16.25zm26.46 0c0-6.5-4.09-11.35-10.4-11.35s-10.41 4.85-10.41 11.35 4 11.35 10.41 11.35 10.4-4.89 10.4-11.35zm30.81 15.7l-7-11.73h-5.47V174h-5.51v-31.43h13.8c6.22 0 10.27 4.05 10.27 9.85 0 5.6-3.68 8.62-7.44 9.23l7.67 12.34zm.47-21.57c0-3-2.26-5-5.37-5h-7.54v10h7.54c3.09-.02 5.37-2 5.37-5.01zm20.06 21.57v-26.57h-9.51v-4.86h24.53v4.86h-9.51V174zm43.42 0v-13.72h-16.34V174h-5.51v-31.43h5.51v12.86h16.34v-12.86h5.51V174z" transform="translate(0 -.45)" fill="#999"/><path class="cls-3" d="M1184 50.28s.6 37.94-13.74 74.78c-7.75-.15-15.18-2.41-19.7-8.51-12.21-16.49-11.17-34.52-5-50.69 3.92-10.3 14.58-19 20.54-26.87a203.65 203.65 0 0 0 15.1-22.7c40.13 39.61 31.07 87 18.3 100.24-2.78 2.89-12.24 6.94-22.44 8.17 15-36.79 6.94-74.42 6.94-74.42z" transform="translate(0 -.45)"/><path class="cls-3" d="M1181.19 16.29c40.13 39.61 31.07 87 18.3 100.24-2.78 2.89-12.24 6.94-22.44 8.17 15-36.79 7-74.42 7-74.42s.6 37.94-13.74 74.78c-7.75-.15-15.18-2.41-19.7-8.51-12.21-16.49-11.17-34.52-5-50.69 3.92-10.3 14.58-19 20.54-26.87a203.65 203.65 0 0 0 15.1-22.7" transform="translate(0 -.45)"/><path class="cls-3" d="M1275.26 13.36a248.79 248.79 0 0 1-29.86 14.76c-11.14 4.72-27.72 7.35-38.17 15.85l-.82.68a89.47 89.47 0 0 1 7.95 31.35 76.94 76.94 0 0 1-2.68 26 51.74 51.74 0 0 1-4.78 11.43c31.82-28.8 50.56-62.38 50.56-62.38s-14.54 44.73-52.93 74.46c11.54 5 24 6.47 28.74 5.11 21.62-6.22 60.19-50.76 41.99-117.26z" transform="translate(0 -.45)"/></svg>